<svg width="60" height="50" viewBox="0 0 60 50" fill="none" xmlns="http://www.w3.org/2000/svg">
<path d="M4.40411 15.0265C-19.1555 48.8129 59.4993 66.7057 59.1655 28.3621C58.9437 2.80785 23.6299 -12.5451 4.40411 15.0265Z" fill="#88CBFF"/>
<path d="M40.7769 24.9192C40.7769 24.4346 40.6952 23.8693 40.6952 23.2232C40.6135 22.5771 40.5318 21.931 40.4501 21.3656C40.2867 20.7195 40.0416 20.235 39.5513 19.8312C39.1428 19.4274 38.5709 19.1851 37.9989 19.1043C36.1197 18.862 33.3417 18.7812 29.5833 18.7812C25.8248 18.7812 22.9651 18.862 21.1676 19.1043C20.5956 19.1851 20.0237 19.4274 19.6152 19.8312C19.2066 20.235 18.8798 20.7195 18.7164 21.3656C18.553 21.931 18.4713 22.4963 18.4713 23.2232C18.3896 23.8693 18.3896 24.4346 18.3896 24.9192C18.3896 25.4038 18.3896 25.9691 18.3896 26.7767C18.3896 27.5843 18.3896 28.2304 18.3896 28.6343C18.3896 29.1188 18.4713 29.6842 18.4713 30.3303C18.553 30.9764 18.6347 31.6225 18.7164 32.1878C18.8798 32.8339 19.1249 33.3185 19.6152 33.7223C20.0237 34.1261 20.5956 34.3684 21.1676 34.4492C23.0468 34.6914 25.8248 34.7722 29.5833 34.7722C33.3417 34.7722 36.2014 34.6914 37.9989 34.4492C38.5709 34.3684 39.1428 34.1261 39.5513 33.7223C39.9599 33.3185 40.2867 32.8339 40.4501 32.1878C40.6135 31.6225 40.6952 31.0571 40.6952 30.3303C40.7769 29.6842 40.7769 29.1188 40.7769 28.6343C40.7769 28.1497 40.7769 27.5843 40.7769 26.7767C40.7769 25.9691 40.7769 25.323 40.7769 24.9192ZM33.9137 27.4228L27.4589 31.3802C27.3772 31.4609 27.2138 31.5417 27.0504 31.5417C26.887 31.5417 26.8053 31.5417 26.6419 31.4609C26.3967 31.2994 26.2333 31.0571 26.2333 30.7341V22.7386C26.2333 22.4156 26.3967 22.1733 26.6419 22.0117C26.887 21.8502 27.2138 21.8502 27.4589 22.0117L33.9137 25.9691C34.1588 26.1306 34.3222 26.3729 34.3222 26.6152C34.3222 26.8575 34.1588 27.2613 33.9137 27.4228Z" fill="white"/>
</svg>
