<svg width="155" height="127" viewBox="0 0 155 127" fill="none" xmlns="http://www.w3.org/2000/svg">
<g clip-path="url(#clip0)">
<path d="M88.9426 4.16235C106.56 4.16235 122.856 9.44156 134.824 19.0269" stroke="black" stroke-width="2" stroke-miterlimit="10" stroke-linecap="round"/>
<path d="M28.0142 116.51C15.5384 111.099 6.02559 103.299 1.0788 93.8123" stroke="black" stroke-width="2" stroke-miterlimit="10" stroke-linecap="round"/>
<path d="M21.1092 32.3185C-57.006 81.368 109.318 161.482 144.235 91.6877C169.432 41.3252 84.8555 -7.70759 21.1092 32.3185Z" stroke="black" stroke-width="2" stroke-miterlimit="10" stroke-linecap="round"/>
<path d="M11.7898 50.9574C-43.5738 130.241 151.131 151.27 150.345 61.2922C149.824 1.32924 56.9683 -13.7408 11.7898 50.9574Z" fill="#88CBFF"/>
<path d="M138.772 22.4885C144.338 27.8372 148.531 34.0623 151.27 40.9975" stroke="black" stroke-width="2" stroke-miterlimit="10" stroke-linecap="round"/>
<path d="M16.0627 20.4564C16.0627 22.2 14.65 23.6127 12.9064 23.6127C11.1628 23.6127 9.75006 22.2 9.75006 20.4564C9.75006 18.7128 11.1628 17.3 12.9064 17.3C14.65 17.3 16.0627 18.7128 16.0627 20.4564Z" stroke="black" stroke-width="2" stroke-miterlimit="10" stroke-linecap="round"/>
<path d="M151.888 109.488L152.502 108.875" stroke="black" stroke-width="2" stroke-miterlimit="10" stroke-linecap="round"/>
<path d="M147.596 113.779L148.209 113.166" stroke="black" stroke-width="2" stroke-miterlimit="10" stroke-linecap="round"/>
<path d="M148.209 109.488L147.596 108.875" stroke="black" stroke-width="2" stroke-miterlimit="10" stroke-linecap="round"/>
<path d="M152.502 113.779L151.888 113.166" stroke="black" stroke-width="2" stroke-miterlimit="10" stroke-linecap="round"/>
<path d="M139.831 43.3547C199.508 119.676 56.3231 166.531 11.8593 72.5943C-14.9416 15.969 90.727 -19.4442 139.831 43.3547Z" stroke="black" stroke-width="2" stroke-miterlimit="10" stroke-linecap="round"/>
</g>
<path d="M75.5949 59.705C75.3249 59.125 75.1849 58.495 75.1849 57.855C75.1849 55.405 77.1749 53.425 79.6149 53.425C82.0649 53.425 84.0449 55.415 84.0449 57.855C84.0449 58.495 83.9049 59.125 83.6349 59.705C86.4249 60.175 88.4749 62.585 88.4849 65.425V73.825C88.4849 74.315 88.0849 74.715 87.5949 74.715H84.9349V86.245C84.9349 86.735 84.5349 87.135 84.0449 87.135H75.1749C74.6849 87.135 74.2849 86.735 74.2849 86.245V74.705H71.6249C71.1349 74.705 70.7349 74.305 70.7349 73.815V65.415C70.7549 62.585 72.8049 60.175 75.5949 59.705ZM74.2949 72.935V64.065H76.0649V85.355H78.7349V72.935H80.5049V85.355H83.1649V64.065H84.9349V72.935H86.7049V65.425C86.7049 63.205 84.9049 61.405 82.6849 61.405H81.9349C81.4449 61.405 81.0449 61.005 81.0449 60.515C81.0449 60.255 81.1549 60.015 81.3449 59.845C81.9249 59.345 82.2649 58.615 82.2649 57.855C82.2649 56.385 81.0749 55.195 79.6049 55.195C78.1349 55.195 76.9449 56.385 76.9449 57.855C76.9449 58.625 77.2849 59.355 77.8649 59.845C78.2349 60.165 78.2749 60.725 77.9449 61.095C77.7749 61.285 77.5349 61.395 77.2749 61.395H76.5249C74.3049 61.395 72.5049 63.195 72.5049 65.415V72.935H74.2949Z" fill="black"/>
<path d="M69.5549 42.985C72.7449 41.675 76.1649 41.005 79.6149 41.005C85.2149 40.995 90.6849 42.755 95.2149 46.055L94.1749 47.495C83.0549 39.465 67.5249 41.965 59.4849 53.085C54.4649 60.045 53.3749 69.095 56.6249 77.035L54.9849 77.705C49.4249 64.095 55.9449 48.545 69.5549 42.985Z" fill="black"/>
<path d="M67.6349 89.365C79.6649 95.975 94.7749 91.585 101.385 79.565C104.475 73.935 105.275 67.325 103.605 61.125L105.315 60.665C109.145 74.865 100.735 89.475 86.5349 93.305C84.2849 93.915 81.9549 94.225 79.6249 94.225C75.1349 94.225 70.7149 93.085 66.7749 90.925L67.6349 89.365Z" fill="black"/>
<path d="M63.5349 60.145C66.4449 53.885 72.7149 49.875 79.6249 49.875C89.4249 49.875 97.3649 57.825 97.3649 67.615C97.3649 74.515 93.3549 80.795 87.0949 83.705L86.3449 82.095C94.3449 78.385 97.8149 68.885 94.1049 60.895C90.3949 52.895 80.8949 49.425 72.9049 53.135C64.9049 56.845 61.4349 66.335 65.1449 74.335C66.7349 77.755 69.4849 80.505 72.9049 82.095L72.1549 83.705C63.2649 79.575 59.4049 69.025 63.5349 60.145Z" fill="black"/>
<path d="M57.6049 80.245C57.4149 79.665 57.4049 79.035 57.5749 78.445C57.8849 77.425 58.7049 76.635 59.7449 76.365C60.6949 76.115 61.7049 76.315 62.4849 76.925C63.4949 77.705 63.9149 79.035 63.5149 80.255C64.6449 80.565 65.4349 81.595 65.4349 82.765V87.945C65.4349 88.435 65.0349 88.835 64.5449 88.835H63.6549V93.345C63.6549 93.835 63.2549 94.235 62.7649 94.235H58.3349C57.8449 94.235 57.4449 93.835 57.4449 93.345V88.835H56.5549C56.0649 88.835 55.6649 88.435 55.6649 87.945V82.765C55.6849 81.575 56.4649 80.555 57.6049 80.245ZM57.4449 87.045H58.3349C58.8249 87.045 59.2249 87.445 59.2249 87.935V92.445H61.8849V87.935C61.8849 87.445 62.2849 87.045 62.7749 87.045H63.6649V82.755C63.6549 82.275 63.2549 81.905 62.7749 81.915H61.8749C61.3849 81.915 60.9849 81.515 60.9849 81.025C60.9849 80.745 61.1249 80.475 61.3549 80.305C61.9149 79.925 62.0549 79.155 61.6749 78.595C61.5949 78.485 61.5049 78.385 61.3949 78.305C61.0449 78.035 60.5949 77.955 60.1749 78.065C59.7449 78.175 59.4149 78.495 59.2749 78.915C59.1149 79.435 59.3049 79.985 59.7549 80.295C60.1549 80.585 60.2349 81.135 59.9549 81.535C59.7849 81.765 59.5249 81.905 59.2349 81.905H58.3349C57.8549 81.895 57.4649 82.265 57.4449 82.745V87.045Z" fill="black"/>
<path d="M98.4049 44.985C98.2149 44.405 98.2049 43.775 98.3749 43.185C98.6749 42.165 99.4949 41.375 100.535 41.105C101.485 40.855 102.505 41.055 103.275 41.665C104.295 42.435 104.705 43.775 104.305 44.985C105.435 45.305 106.215 46.325 106.225 47.495V52.525C106.225 53.015 105.825 53.415 105.335 53.415H104.445V58.735C104.445 59.225 104.045 59.625 103.555 59.625H99.1349C98.6449 59.625 98.2449 59.225 98.2449 58.735V53.415H97.3549C96.8649 53.415 96.4649 53.015 96.4649 52.525V47.495C96.4849 46.325 97.2649 45.295 98.4049 44.985ZM98.2449 51.645H99.1349C99.6249 51.645 100.025 52.045 100.025 52.535V57.855H102.685V52.535C102.685 52.045 103.085 51.645 103.575 51.645H104.455V47.495C104.445 47.015 104.045 46.645 103.565 46.655H102.665C102.175 46.655 101.775 46.255 101.775 45.765C101.775 45.485 101.915 45.215 102.145 45.045C102.705 44.665 102.845 43.895 102.465 43.335C102.385 43.225 102.295 43.125 102.185 43.045C101.835 42.775 101.385 42.685 100.965 42.805C100.535 42.915 100.205 43.235 100.065 43.655C99.9149 44.195 100.105 44.755 100.555 45.055C100.945 45.345 101.035 45.895 100.755 46.295C100.585 46.525 100.315 46.665 100.035 46.665H99.1349C98.6549 46.645 98.2649 47.025 98.2449 47.495V51.645Z" fill="black"/>
<path d="M53.0149 41.005H54.7849V42.775H53.0149V41.005Z" fill="black"/>
<path d="M55.6749 43.665H57.4449V45.435H55.6749V43.665Z" fill="black"/>
<path d="M101.795 89.785H103.565V91.555H101.795V89.785Z" fill="black"/>
<path d="M104.455 92.445H106.225V94.215H104.455V92.445Z" fill="black"/>
<defs>
<clipPath id="clip0">
<rect width="155" height="127" fill="white"/>
</clipPath>
</defs>
</svg>
